<svg xmlns="http://www.w3.org/2000/svg" viewBox="0 0 420 80" width="420" height="80">
  <defs>
    <linearGradient id="pGrad" x1="0" y1="1" x2="1" y2="0">
      <stop offset="0%" stop-color="#D73A31"/>
      <stop offset="50%" stop-color="#F3632A"/>
      <stop offset="100%" stop-color="#FCAE1E"/>
    </linearGradient>
    <linearGradient id="bubGrad" x1="0" y1="1" x2="1" y2="0">
      <stop offset="0%" stop-color="#F3632A"/>
      <stop offset="100%" stop-color="#FCAE1E"/>
    </linearGradient>
  </defs>
  <rect width="420" height="80" fill="#0D0D0D" rx="8"/>
  <!-- P mark scaled to 48px -->
  <g transform="translate(16,16) scale(0.09375)">
    <path d="M 128,420 L 128,130 Q 128,96 162,96 L 280,96 Q 310,96 332,104 Q 358,116 370,138 Q 382,160 382,188 L 382,210 Q 382,242 368,262 Q 354,280 332,290 Q 314,296 280,296 L 210,296 L 210,420 L 128,420 Z M 210,162 L 210,236 L 268,236 Q 296,236 310,224 Q 320,214 320,198 L 320,196 Q 320,176 308,166 Q 296,158 268,158 L 210,162 Z" fill="url(#pGrad)" fill-rule="evenodd"/>
    <circle cx="366" cy="114" r="20" fill="url(#bubGrad)"/>
    <circle cx="394" cy="86" r="13" fill="url(#bubGrad)" opacity="0.92"/>
    <circle cx="370" cy="70" r="8" fill="#FCAE1E" opacity="0.85"/>
    <circle cx="408" cy="60" r="7" fill="#FCAE1E" opacity="0.72"/>
    <circle cx="420" cy="78" r="5.5" fill="#FCAE1E" opacity="0.55"/>
  </g>
  <!-- Wordmark -->
  <text x="76" y="49" font-family="'Space Grotesk', system-ui, sans-serif" font-weight="600" font-size="28" letter-spacing="0.06em" fill="#F0EDE8" text-transform="uppercase">PLASMATE</text>
</svg>
